<?xml version="1.0" encoding="UTF-8" standalone="no"?>
<!DOCTYPE svg PUBLIC "-//W3C//DTD SVG 1.1//EN" "http://www.w3.org/Graphics/SVG/1.1/DTD/svg11.dtd">
<svg width="100%" height="100%" viewBox="0 0 200 135" version="1.1" xmlns="http://www.w3.org/2000/svg" xmlns:xlink="http://www.w3.org/1999/xlink" xml:space="preserve" xmlns:serif="http://www.serif.com/" style="fill-rule:evenodd;clip-rule:evenodd;stroke-linejoin:round;stroke-miterlimit:2;">
    <g transform="matrix(1,0,0,1,-2260.49,-307.003)">
        <g transform="matrix(0.971145,0,0,0.95081,1186.57,-270.313)">
            <path d="M1105.83,687.848C1147.75,693.874 1133.52,713.485 1180.83,748.014C1152.18,750.832 1110.76,744.217 1105.83,687.848Z" style="fill:rgb(0,134,230);"/>
        </g>
        <g transform="matrix(1.24529,0,0,1.59321,919.759,-751.186)">
            <path d="M1105.83,687.848C1147.75,693.874 1133.52,713.485 1180.83,748.014C1152.18,750.832 1110.76,744.217 1105.83,687.848Z" style="fill:rgb(0,134,230);"/>
        </g>
        <g transform="matrix(1.5573,0,0,2.21428,621.593,-1216.08)">
            <path d="M1105.83,687.848C1144.47,693.683 1133.52,713.485 1180.83,748.014C1152.18,750.832 1110.76,744.217 1105.83,687.848Z" style="fill:rgb(255,187,51);"/>
        </g>
    </g>
</svg>
